<mxfile host="app.diagrams.net" modified="2024-05-26T21:31:15.691Z" agent="Mozilla/5.0 (Windows NT 10.0; Win64; x64) AppleWebKit/537.36 (KHTML, like Gecko) Chrome/125.0.0.0 Safari/537.36" etag="rRX0VLsKA3cmHlScB_Ad" version="24.4.8" type="github">
  <diagram name="Page-1" id="QVzWQ97LO81RVAsv8JfC">
    <mxGraphModel dx="1061" dy="580" grid="1" gridSize="10" guides="1" tooltips="1" connect="1" arrows="1" fold="1" page="1" pageScale="1" pageWidth="850" pageHeight="1100" math="0" shadow="0">
      <root>
        <mxCell id="0" />
        <mxCell id="1" parent="0" />
        <mxCell id="pLjrjY1wvcYvO16qf_Zk-1" value="" style="verticalLabelPosition=bottom;verticalAlign=top;html=1;shape=mxgraph.basic.frame_corner;dx=5.1;whiteSpace=wrap;strokeColor=#1A1A1A;fillColor=#1A1A1A;" vertex="1" parent="1">
          <mxGeometry x="70" y="270" width="60" height="60" as="geometry" />
        </mxCell>
        <mxCell id="pLjrjY1wvcYvO16qf_Zk-2" value="" style="verticalLabelPosition=bottom;verticalAlign=top;html=1;shape=mxgraph.basic.frame_corner;dx=7.4;whiteSpace=wrap;direction=west;strokeColor=default;fillColor=#1A1A1A;strokeWidth=0;" vertex="1" parent="1">
          <mxGeometry x="70" y="270" width="60" height="60" as="geometry" />
        </mxCell>
        <mxCell id="pLjrjY1wvcYvO16qf_Zk-6" value="" style="shape=partialRectangle;whiteSpace=wrap;html=1;bottom=0;right=0;fillColor=none;strokeWidth=6;" vertex="1" parent="1">
          <mxGeometry x="170" y="270" width="50" height="60" as="geometry" />
        </mxCell>
        <mxCell id="pLjrjY1wvcYvO16qf_Zk-7" value="" style="shape=partialRectangle;whiteSpace=wrap;html=1;top=0;bottom=0;fillColor=none;strokeWidth=8;" vertex="1" parent="1">
          <mxGeometry x="240" y="270" width="30" height="60" as="geometry" />
        </mxCell>
      </root>
    </mxGraphModel>
  </diagram>
</mxfile>
